<svg width="152" height="36" viewBox="0 0 152 36" fill="none" xmlns="http://www.w3.org/2000/svg">
<path d="M48.6344 11.5766C48.6344 11.2983 48.5027 11.0557 48.2394 10.8488C47.976 10.6419 47.6343 10.4707 47.2143 10.3351C46.8014 10.1996 46.3387 10.0569 45.8262 9.90706C45.3208 9.7501 44.8154 9.55389 44.31 9.31845C43.8117 9.08301 43.3526 8.80119 42.9326 8.47299C42.5197 8.1448 42.1816 7.70245 41.9182 7.14594C41.6548 6.58944 41.5231 5.94732 41.5231 5.21958C41.5231 3.96388 42.0641 2.86514 43.1461 1.92337C44.2353 0.974456 45.6269 0.5 47.3211 0.5C48.0187 0.5 48.6771 0.578481 49.2964 0.735444C49.9157 0.885272 50.4211 1.06721 50.8127 1.28125C51.2113 1.49529 51.5601 1.70933 51.8591 1.92337C52.158 2.13027 52.3645 2.31577 52.4784 2.47987L52.6812 2.69391L50.2681 5.21958C50.1969 5.13397 50.0901 5.02695 49.9478 4.89852C49.8125 4.76296 49.5242 4.58103 49.0829 4.35272C48.6487 4.12441 48.2073 4.01026 47.7589 4.01026C47.289 4.01026 46.8975 4.14225 46.5843 4.40623C46.2711 4.67021 46.1145 4.977 46.1145 5.3266C46.1145 5.60486 46.2462 5.84743 46.5096 6.05434C46.773 6.25411 47.1111 6.42534 47.524 6.56804C47.9439 6.70359 48.4031 6.84986 48.9014 7.00682C49.4068 7.15665 49.9122 7.34928 50.4176 7.58473C50.9301 7.82017 51.3928 8.10199 51.8057 8.43018C52.2257 8.75838 52.5673 9.20073 52.8307 9.75723C53.0941 10.3137 53.2258 10.9559 53.2258 11.6836C53.2258 13.1034 52.667 14.2984 51.5494 15.2688C50.4318 16.2391 48.9476 16.7242 47.0969 16.7242C46.3423 16.7242 45.6127 16.6315 44.9079 16.446C44.2103 16.2676 43.6337 16.05 43.1782 15.7932C42.7297 15.5363 42.3311 15.2795 41.9823 15.0226C41.6335 14.7658 41.3772 14.5446 41.2135 14.3591L40.9786 14.0915L43.381 11.5766C43.4095 11.6194 43.4593 11.6765 43.5305 11.7478C43.6088 11.8192 43.7548 11.9511 43.9683 12.1438C44.189 12.3364 44.4203 12.5076 44.6624 12.6575C44.9044 12.8002 45.2069 12.9286 45.57 13.0427C45.933 13.1569 46.296 13.214 46.6591 13.214C47.2428 13.214 47.7162 13.0535 48.0792 12.7324C48.4493 12.4113 48.6344 12.0261 48.6344 11.5766Z" fill="#11253D"/>
<path d="M63.3862 0.938782H67.8708L62.4038 10.806V16.2855H58.2502V10.806L52.7833 0.938782H57.2679L60.3324 6.85699L63.3862 0.938782Z" fill="#11253D"/>
<path d="M79.1416 0.938782H83.2952V16.2855H79.7075L73.1301 7.73455V16.2855H68.9765V0.938782H72.5856L79.1416 9.48968V0.938782Z" fill="#11253D"/>
<path d="M90.3057 12.7752H98.1751V16.2855H86.1521V0.938782H97.9615V4.44904H90.3057V6.85699H96.2104V10.1532H90.3057V12.7752Z" fill="#11253D"/>
<path d="M100.146 16.2855V0.938782H107.364C108.98 0.938782 110.311 1.44534 111.357 2.45847C112.411 3.46446 112.938 4.71302 112.938 6.20417C112.938 6.81775 112.845 7.39209 112.66 7.92719C112.482 8.45516 112.265 8.8868 112.009 9.22213C111.752 9.55033 111.496 9.83215 111.24 10.0676C110.984 10.2959 110.77 10.4529 110.599 10.5385L110.311 10.699L113.482 16.2855H109.115L106.488 11.4589H104.299V16.2855H100.146ZM108.325 7.29577C108.631 7.00325 108.784 6.63938 108.784 6.20417C108.784 5.76182 108.631 5.39795 108.325 5.11256C108.019 4.82004 107.624 4.67378 107.14 4.67378H104.299V7.73455H107.14C107.624 7.73455 108.019 7.58829 108.325 7.29577Z" fill="#11253D"/>
<path d="M122.884 16.7242C120.507 16.7242 118.489 15.9287 116.83 14.3377C115.179 12.7395 114.353 10.831 114.353 8.61212C114.353 6.39324 115.179 4.48828 116.83 2.89725C118.489 1.29908 120.507 0.5 122.884 0.5C123.703 0.5 124.482 0.60702 125.223 0.82106C125.963 1.0351 126.572 1.29195 127.049 1.5916C127.533 1.89126 127.953 2.19092 128.309 2.49057C128.672 2.79023 128.931 3.04708 129.088 3.26112L129.334 3.57148L126.814 6.20417C126.771 6.14709 126.714 6.07574 126.643 5.99013C126.572 5.89738 126.408 5.74041 126.152 5.51924C125.895 5.29093 125.629 5.09116 125.351 4.91993C125.073 4.74156 124.707 4.5846 124.251 4.44904C123.803 4.30635 123.347 4.235 122.884 4.235C121.632 4.235 120.589 4.65238 119.756 5.48713C118.923 6.31476 118.507 7.35642 118.507 8.61212C118.507 9.86782 118.923 10.913 119.756 11.7478C120.589 12.5826 121.632 12.9999 122.884 12.9999C123.411 12.9999 123.892 12.9215 124.326 12.7645C124.76 12.6004 125.066 12.4292 125.244 12.2508L125.5 12.0154V10.3672H123.098V7.73455H129.665V13.6528C129.608 13.7384 129.512 13.8525 129.376 13.9952C129.241 14.1308 128.96 14.3769 128.533 14.7337C128.106 15.0833 127.647 15.3936 127.155 15.6647C126.664 15.9359 126.034 16.1784 125.265 16.3925C124.497 16.6136 123.703 16.7242 122.884 16.7242Z" fill="#11253D"/>
<path d="M140.679 0.938782H145.164L139.697 10.806V16.2855H135.543V10.806L130.076 0.938782H134.561L137.625 6.85699L140.679 0.938782Z" fill="#11253D"/>
<path d="M50.0545 28.4902L48.6344 23.9953L47.2143 28.4902H50.0545ZM51.1437 31.7757H46.1145L45.0254 35.0612H40.5408L46.3387 19.7145H50.9301L56.7281 35.0612H52.2435L51.1437 31.7757Z" fill="#11253D"/>
<path d="M61.4749 24.2629C60.642 25.0905 60.2256 26.1322 60.2256 27.3879C60.2256 28.6436 60.642 29.6888 61.4749 30.5236C62.3077 31.3583 63.3506 31.7757 64.6034 31.7757C65.3793 31.7757 66.1125 31.6116 66.803 31.2834C67.4935 30.9552 67.9918 30.6235 68.2979 30.2881L68.757 29.7958L71.1595 32.4285C71.1025 32.5141 71.0171 32.6283 70.9032 32.771C70.7964 32.9065 70.5402 33.1527 70.1344 33.5094C69.7358 33.859 69.3016 34.1694 68.8318 34.4405C68.3691 34.7116 67.7533 34.9542 66.9845 35.1682C66.2229 35.3894 65.4292 35.5 64.6034 35.5C62.2259 35.5 60.2078 34.7045 58.5492 33.1135C56.8978 31.5153 56.072 29.6068 56.072 27.3879C56.072 25.169 56.8978 23.264 58.5492 21.673C60.2078 20.0748 62.2259 19.2758 64.6034 19.2758C65.422 19.2758 66.2015 19.3828 66.9418 19.5968C67.6821 19.8109 68.2908 20.0677 68.7677 20.3674C69.2517 20.667 69.6717 20.9667 70.0276 21.2663C70.3907 21.566 70.6505 21.8228 70.8071 22.0369L71.0527 22.3472L68.5328 24.9799C68.4901 24.9229 68.4331 24.8515 68.3619 24.7659C68.2908 24.6731 68.127 24.5162 67.8708 24.295C67.6145 24.0667 67.3476 23.8669 67.07 23.6957C66.7923 23.5173 66.4257 23.3604 65.9702 23.2248C65.5217 23.0821 65.0661 23.0108 64.6034 23.0108C63.3506 23.0108 62.3077 23.4281 61.4749 24.2629Z" fill="#11253D"/>
<path d="M80.455 28.4902L79.0348 23.9953L77.6147 28.4902H80.455ZM81.5441 31.7757H76.5149L75.4258 35.0612H70.9412L76.7392 19.7145H81.3305L87.1285 35.0612H82.6439L81.5441 31.7757Z" fill="#11253D"/>
<path d="M88.2236 19.7145H94.1283C96.4631 19.7145 98.3958 20.453 99.9262 21.9299C101.457 23.4067 102.222 25.2261 102.222 27.3879C102.222 29.5497 101.453 31.369 99.9155 32.8459C98.3851 34.3228 96.456 35.0612 94.1283 35.0612H88.2236V19.7145ZM94.1283 23.4495H92.3772V31.3369H94.1283C95.196 31.3369 96.1179 30.9624 96.8938 30.2132C97.6697 29.4569 98.0576 28.5152 98.0576 27.3879C98.0576 26.2321 97.691 25.2867 96.9578 24.5518C96.2246 23.817 95.2815 23.4495 94.1283 23.4495Z" fill="#11253D"/>
<path d="M108.335 31.551H116.205V35.0612H104.182V19.7145H115.991V23.2248H108.335V25.6328H114.24V28.929H108.335V31.551Z" fill="#11253D"/>
<path d="M126.589 31.3369L122.329 25.9645V35.0612H118.176V19.7145H121.891L126.589 25.7505L131.298 19.7145H135.014V35.0612H130.861V25.9645L126.589 31.3369Z" fill="#11253D"/>
<path d="M146.701 19.7145H151.186L145.719 29.5818V35.0612H141.565V29.5818L136.099 19.7145H140.583L143.648 25.6328L146.701 19.7145Z" fill="#11253D"/>
<path d="M21.0043 21.496L17.5084 17.9998L21.0043 14.5037V7.51135L10.5165 17.9998L21.0043 28.4883V21.496Z" fill="#FF0040"/>
<path d="M0 0.5V35.5H35.0074V0.5H0ZM30.0036 30.4959H5.0038V5.49451H30.0036V30.4959Z" fill="#FF0040"/>
</svg>
